<svg xmlns="http://www.w3.org/2000/svg" width="1368.397" height="387.203" viewBox="0 0 1368.397 387.203">
  <g id="Group_6321" data-name="Group 6321" transform="translate(1.199 -5540.399)">
    <path id="Intersection_1" data-name="Intersection 1" d="M1463.417,1487.5l-512.951-384Zm-40.074,0-512.951-384Zm-41.411,0-512.951-384Zm-41.06,0-512.951-384Zm-40.074,0-512.951-384Zm-41.411,0-512.951-384Zm-40.074,0-512.951-384Zm-40.074,0-512.951-384Zm-41.411,0-512.951-384Zm-43.514,0-512.951-384Zm-40.074,0-512.951-384Zm-41.411,0-512.951-384Zm-40.074,0-512.951-384Zm-40.074,0-512.951-384Zm-41.411,0-512.951-384Zm-41.06,0-512.951-384Zm-40.074,0-512.951-384Zm-41.411,0-512.951-384Zm-40.074,0L215.7,1103.5Zm-40.074,0-512.951-384Zm-41.411,0-512.951-384Zm-40.395,0L100,1108.122Zm-40.074,0L100,1138.121Zm-41.411,0L100,1169.122Zm-40.074,0L100,1199.122Zm-40.074,0L100,1229.121Zm-41.411,0L100,1260.122Zm-41.06,0L100,1290.859Zm-40.074,0L100,1320.859Zm-41.411,0L100,1351.86Zm-40.074,0L100,1381.859Zm-40.074,0L100,1411.859Zm-41.411,0L100,1442.86Zm830.91-384L1466,1459.433Zm41.411,0L1466,1428.432Zm40.074,0L1466,1398.433Zm40.395,0L1466,1368.193Zm41.411,0L1466,1337.193Zm40.074,0L1466,1307.193Zm40.074,0L1466,1277.193Zm41.411,0L1466,1246.193Zm40.074,0L1466,1216.193Zm41.06,0L1466,1185.455Zm41.411,0L1466,1154.455Zm40.074,0L1466,1124.455Z" transform="translate(-99.998 4438.5)" fill="none" stroke="#f0ce4a" stroke-width="4" opacity="0.1"/>
    <g id="Group_6251" data-name="Group 6251" transform="translate(0 39.799)">
      <path id="Path_4404" data-name="Path 4404" d="M0,0H1366V384H0Z" transform="translate(0 5502.201)" fill="#fff7e6" opacity="0.5"/>
      <line id="Line_163" data-name="Line 163" x2="108" y2="185" transform="translate(231 5602)" fill="none" stroke="#000" stroke-width="1"/>
      <line id="Line_164" data-name="Line 164" x1="108" y2="185" transform="translate(1027 5602)" fill="none" stroke="#000" stroke-width="1"/>
    </g>
  </g>
</svg>
