<svg xmlns="http://www.w3.org/2000/svg" height="186.324" viewBox="0 0 1368.623 186.324">
  <g id="Group_6124" data-name="Group 6124" transform="translate(2.623 -1278)">
    <g id="Group_6085" data-name="Group 6085" transform="translate(874.52 1249.71)">
      <path id="Path_4362" data-name="Path 4362" d="M264.471,63.337c5.387,33.917,33.119,64.641,33.119,64.641H156.136s29.129-28.529,35.912-64.641Z" fill="#f2726d"/>
      <g id="Group_6084" data-name="Group 6084">
        <path id="Path_4363" data-name="Path 4363" d="M221.278,127.978s-26.636-26.534-29.23-64.641c0,0-3.791,27.731-35.912,64.641Z" fill="#c44d49"/>
        <path id="Path_4364" data-name="Path 4364" d="M221.278,127.978s-23.294-23.292-29.23-64.641c0,0-6.584,34.914,5.986,64.641Z" fill="#e8625d"/>
        <path id="Path_4365" data-name="Path 4365" d="M192.048,63.337s-2.394,35.677-23.444,64.641H156.136S183.469,96.456,192.048,63.337Z" fill="#e8625d"/>
        <rect id="Rectangle_1592" data-name="Rectangle 1592" width="2.469" height="11.447" transform="translate(223.372 122.541)" fill="#3f7173"/>
        <rect id="Rectangle_1593" data-name="Rectangle 1593" width="2.469" height="11.447" transform="translate(299.086 122.541)" fill="#3f7173"/>
        <rect id="Rectangle_1594" data-name="Rectangle 1594" width="2.469" height="11.447" transform="translate(152.595 122.541)" fill="#3f7173"/>
        <path id="Path_4366" data-name="Path 4366" d="M224.642,126.205a2.346,2.346,0,0,1-1.367-.482c-14.675-10.375-31.2-61.823-31.369-62.341l.285-.091c.165.518,16.663,51.87,31.267,62.2a1.8,1.8,0,0,0,2.29,0l.185.234A2.037,2.037,0,0,1,224.642,126.205Z" fill="#6e635d"/>
        <path id="Path_4367" data-name="Path 4367" d="M153.732,127.9a1.728,1.728,0,0,1-1.252-.528l.229-.193c.033.039.83.943,2.251-.014.807-1.042,30.51-39.564,36.8-63.825l.29.076c-6.362,24.531-36.565,63.561-36.869,63.952l-.034.031A2.509,2.509,0,0,1,153.732,127.9Z" fill="#6e635d"/>
        <path id="Path_4368" data-name="Path 4368" d="M300.371,126.941a2.13,2.13,0,0,1-1.394-.633c-18.953-15.475-34.494-62.452-34.648-62.925l.284-.093c.155.472,15.668,47.366,34.568,62.8a1.871,1.871,0,0,0,1.191.553h.008a1.467,1.467,0,0,0,1.065-.539l.22.2a1.754,1.754,0,0,1-1.286.634Z" fill="#6e635d"/>
      </g>
    </g>
    <g id="Group_6086" data-name="Group 6086" transform="translate(616 992.039)" opacity="0.5">
      <path id="Path_4369" data-name="Path 4369" d="M346.085,420.666c.06.049.113.1.171.153a1.179,1.179,0,0,0-.118-.333c-.041.043-.082.086-.114.125A.735.735,0,0,0,346.085,420.666Z" fill="#cfdce8"/>
      <path id="Path_4370" data-name="Path 4370" d="M586.35,426.17q-31.575.27-63.14-.03c-49.14-.41-98.42-2.82-147.54-2.09-8.65.13-19.64,2.54-27.65-1.74a1.585,1.585,0,0,1-.19-.123,2.078,2.078,0,0,1,.3-3.45c10.332-5.8,51.661-30.66,27.829-44.777-15-8.887-37.91-5.32-54.54-5.15-64.67.65-873.733,1.908-940.043,1.1V408.53c21.59-.38,786.773.85,808.413,0,27.35-1.08,54.58-2.57,81.87-4.21,9.79-.59,25.35-2.79,33.89,3.3,15.66,11.19-7.15,28.1-1.52,42.66,9.75,25.19,60.47,21.78,81.5,21.92,50.24.35,102.74-3.92,152.95-3.92,27.62,0,187.13-.64,211.52-5.35V423.5C737.08,423.57,599.28,426.05,586.35,426.17ZM364.38,392.98l-.39-.42A.709.709,0,0,1,364.38,392.98ZM363,384.6c.13.01.11.09-.01.19A1.209,1.209,0,0,1,363,384.6Zm-26.76,11.04c.01-.03.02-.06.03-.04C336.07,395.03,337.12,394.82,336.24,395.64Z" fill="#cfdce8"/>
    </g>
    <g id="Group_6088" data-name="Group 6088" transform="translate(589.68 938.848)">
      <path id="Path_4361" data-name="Path 4361" d="M693.725,339.3c-18.968-2.063-21.174,18.73-17.968,31.484,1.792,7.131,3.179,15.054,1.7,22.483-1.495,7.513-7.016,12.432-10.224,19.226-3.736,7.913-4.277,17.283.739,24.69,5.88,8.681,17.487,11.331,27.454,11.931,14.268.858,26.489-7.068,30.974-20.492s-1.871-21.073-8.32-31.878c-9.019-15.11,1.028-31.879-4.458-47.7C709.817,338.073,702.848,341.413,693.725,339.3Z" fill="#ffc248"/>
      <line id="Line_159" data-name="Line 159" y2="130.232" transform="translate(695.002 357.596)" fill="none" stroke="#8e6f49" stroke-miterlimit="10" stroke-width="1.492"/>
      <line id="Line_160" data-name="Line 160" x2="11.917" y2="14.896" transform="translate(683.085 361.852)" fill="none" stroke="#8e6f49" stroke-miterlimit="10" stroke-width="1.492"/>
      <line id="Line_161" data-name="Line 161" x1="13.193" y2="15.322" transform="translate(694.576 372.917)" fill="none" stroke="#8e6f49" stroke-miterlimit="10" stroke-width="1.492"/>
      <line id="Line_162" data-name="Line 162" x2="12.342" y2="15.747" transform="translate(682.659 398.453)" fill="none" stroke="#8e6f49" stroke-miterlimit="10" stroke-width="1.492"/>
    </g>
    <g id="Group_6089" data-name="Group 6089" transform="translate(536.68 1002.382)">
      <path id="Path_4361-2" data-name="Path 4361" d="M685.865,339.257c-13.9-1.512-15.514,13.723-13.165,23.068,1.313,5.225,2.329,11.03,1.246,16.473-1.1,5.5-5.141,9.109-7.491,14.087-2.737,5.8-3.134,12.663.541,18.09,4.308,6.36,12.812,8.3,20.115,8.742,10.454.629,19.408-5.179,22.694-15.014s-1.371-15.44-6.1-23.356c-6.608-11.071.753-23.357-3.266-34.947C697.655,338.362,692.549,340.809,685.865,339.257Z" fill="#ffc248"/>
      <line id="Line_159-2" data-name="Line 159" y2="95.419" transform="translate(686.8 352.665)" fill="none" stroke="#8e6f49" stroke-miterlimit="10" stroke-width="1.492"/>
      <line id="Line_160-2" data-name="Line 160" x2="8.731" y2="10.914" transform="translate(678.069 355.784)" fill="none" stroke="#8e6f49" stroke-miterlimit="10" stroke-width="1.492"/>
      <line id="Line_161-2" data-name="Line 161" x1="9.667" y2="11.226" transform="translate(686.488 363.891)" fill="none" stroke="#8e6f49" stroke-miterlimit="10" stroke-width="1.492"/>
      <line id="Line_162-2" data-name="Line 162" x2="9.043" y2="11.538" transform="translate(677.757 382.601)" fill="none" stroke="#8e6f49" stroke-miterlimit="10" stroke-width="1.492"/>
    </g>
    <path id="Path_4371" data-name="Path 4371" d="M460.82,271.518c.127.182.395-.065.459-.275a14.492,14.492,0,0,0,.344-7.218c-1.174-5.625-9.628-5.176-11.579-.232a70.072,70.072,0,0,0-2.262-9.869c-.778-2.388-1.906-5.16-4.584-6.057-4.75-1.592-7.733,1.967-8.624,6.041a28.706,28.706,0,0,0-.56,4.386c-.052.85-.619,3.758-.117,4.429-2.747-3.67-10.314-5.487-9.849,1.123a11.112,11.112,0,0,0,4.141,7.794Z" transform="translate(717.074 1164.29)" fill="#bf7d41"/>
    <path id="Path_4372" data-name="Path 4372" d="M620.424,240.895c.112.166.347-.06.4-.252a13.75,13.75,0,0,0,.3-6.6c-1.031-5.14-8.458-4.729-10.171-.212a66.225,66.225,0,0,0-1.987-9.019c-.684-2.182-1.674-4.714-4.028-5.535-4.172-1.455-6.793,1.8-7.575,5.52a27.225,27.225,0,0,0-.493,4.008c-.046.776-.544,3.434-.1,4.046-2.413-3.354-9.06-5.014-8.653,1.027a10.286,10.286,0,0,0,3.638,7.122Z" transform="translate(329.606 1125.502)" fill="#ffc248"/>
    <g id="Group_6090" data-name="Group 6090" transform="translate(1007.604 1391.781)" opacity="0.6">
      <g id="Group_5791" data-name="Group 5791" transform="translate(7.913 1.944)">
        <path id="Path_3963" data-name="Path 3963" d="M134.228,388.364c.834-1.477,2.11-2.7,2.706-4.305.381-1.027,2.041-.583,1.656.457-.657,1.776-1.961,3.091-2.879,4.715a.86.86,0,0,1-1.484-.867Z" transform="translate(-134.11 -383.476)" fill="#ffce71"/>
      </g>
      <g id="Group_5792" data-name="Group 5792" transform="translate(6.212 2.114)">
        <path id="Path_3964" data-name="Path 3964" d="M139.309,387.536a11.549,11.549,0,0,0-.184-2.778.887.887,0,0,1,.6-1.057.865.865,0,0,1,1.057.6,13.462,13.462,0,0,1,.246,3.235c-.094,1.094-1.814,1.1-1.718,0Z" transform="translate(-139.11 -383.673)" fill="#ffce71"/>
      </g>
      <g id="Group_5793" data-name="Group 5793" transform="translate(2.084 0)">
        <path id="Path_3965" data-name="Path 3965" d="M143.852,387.2c-.588-1.543-.917-3.352-1.847-4.734-.619-.92.869-1.781,1.484-.867,1.013,1.505,1.381,3.466,2.02,5.144.394,1.034-1.266,1.482-1.656.457Z" transform="translate(-141.857 -381.212)" fill="#ffce71"/>
      </g>
      <g id="Group_5794" data-name="Group 5794" transform="translate(0 4.227)">
        <path id="Path_3966" data-name="Path 3966" d="M146.342,390.638a33.781,33.781,0,0,1-3.007-3.007c-.716-.835.493-2.056,1.215-1.215a33.9,33.9,0,0,0,3.007,3.007c.821.744-.4,1.956-1.215,1.215Z" transform="translate(-143.116 -386.133)" fill="#ffce71"/>
      </g>
    </g>
    <g id="Group_6091" data-name="Group 6091" transform="translate(1177.604 1341.781)" opacity="0.6">
      <g id="Group_5791-2" data-name="Group 5791" transform="translate(7.913 1.944)">
        <path id="Path_3963-2" data-name="Path 3963" d="M134.228,388.364c.834-1.477,2.11-2.7,2.706-4.305.381-1.027,2.041-.583,1.656.457-.657,1.776-1.961,3.091-2.879,4.715a.86.86,0,0,1-1.484-.867Z" transform="translate(-134.11 -383.476)" fill="#ffce71"/>
      </g>
      <g id="Group_5792-2" data-name="Group 5792" transform="translate(6.212 2.114)">
        <path id="Path_3964-2" data-name="Path 3964" d="M139.309,387.536a11.549,11.549,0,0,0-.184-2.778.887.887,0,0,1,.6-1.057.865.865,0,0,1,1.057.6,13.462,13.462,0,0,1,.246,3.235c-.094,1.094-1.814,1.1-1.718,0Z" transform="translate(-139.11 -383.673)" fill="#ffce71"/>
      </g>
      <g id="Group_5793-2" data-name="Group 5793" transform="translate(2.084 0)">
        <path id="Path_3965-2" data-name="Path 3965" d="M143.852,387.2c-.588-1.543-.917-3.352-1.847-4.734-.619-.92.869-1.781,1.484-.867,1.013,1.505,1.381,3.466,2.02,5.144.394,1.034-1.266,1.482-1.656.457Z" transform="translate(-141.857 -381.212)" fill="#ffce71"/>
      </g>
      <g id="Group_5794-2" data-name="Group 5794" transform="translate(0 4.227)">
        <path id="Path_3966-2" data-name="Path 3966" d="M146.342,390.638a33.781,33.781,0,0,1-3.007-3.007c-.716-.835.493-2.056,1.215-1.215a33.9,33.9,0,0,0,3.007,3.007c.821.744-.4,1.956-1.215,1.215Z" transform="translate(-143.116 -386.133)" fill="#ffce71"/>
      </g>
    </g>
    <g id="Group_6120" data-name="Group 6120" transform="translate(38 1297.961)">
      <path id="Path_3595" data-name="Path 3595" d="M601.813,329.676a10.956,10.956,0,0,1-.245,2.252,1.2,1.2,0,0,1-.007.166,32.7,32.7,0,0,1-.734,3.987,17.5,17.5,0,0,1-4.4,8.494c-4.045,4.024-9.069.821-13.72,2.577-4.247,1.6-3.542,7.241-7.623,9.292a4.689,4.689,0,0,1-3.412.4c-.914-.324-1.641-1.238-2.5-1.691-2.037-1.08-3.462-.446-5.528.043-2.354.569-4.549.986-6.931.144-3.693-1.3-4.449-4.506-6.471-7.4,2.908,1.209,6.348,2.231,8.508-.813,1.835-2.592,2.246-5.946,4.326-8.407.993-1.181,2.123-2.5,3.714-2.822,1.374-.28,2.929.187,4.3.195,2.829.014,5.565-2.376,6.738-4.931.885-1.929,1.274-4.521,2.685-6.054-.007-.1-.015-.2-.015-.309,0-3.045,4.052-5.514,9.055-5.514.158,0,.317,0,.475.007a13.353,13.353,0,0,1,4.168.778,7.2,7.2,0,0,1,1.238.266C599.107,321.434,601.813,325.2,601.813,329.676Z" transform="translate(-412.963 -318.767)" fill="#5f0c39"/>
      <g id="Group_5627" data-name="Group 5627" transform="translate(105.167 41.227)">
        <g id="Group_5591" data-name="Group 5591" transform="translate(0.255)">
          <path id="Path_3597" data-name="Path 3597" d="M512.765,387.324h0s.918-2.684,2.007-3.546a2.806,2.806,0,0,0-3.014,1.36s-.345-.637.384-2.815a4.022,4.022,0,0,0-2.206,1.766,12.98,12.98,0,0,1-.923-3.99s-2.135.625-1.759,4.095c0,0-2.2-1.222-3.368-.153,0,0,1.364,1,1.479,1.633,0,0-2.509.425-2.714,2.422a5.17,5.17,0,0,1,2.905.7h0c-.048.012-2.256.581-2.036,3.8,0,0,2.623-2.093,4.69-1.311l3.72-1.19a4.424,4.424,0,0,1,3.2-1.644A1.709,1.709,0,0,0,512.765,387.324Z" transform="translate(-502.651 -380.099)" fill="#53a094"/>
          <g id="Group_5590" data-name="Group 5590" transform="translate(3.467 9.973)">
            <path id="Path_3598" data-name="Path 3598" d="M508.816,403.711a1.245,1.245,0,0,0,1.059-.991,1.494,1.494,0,0,0,1.459.178,1.243,1.243,0,0,0,.884-1.125,2.01,2.01,0,0,0,1.708.037,1.07,1.07,0,0,0,.771-1.187,1.835,1.835,0,0,0,1.77-.047.92.92,0,0,0,.541-1.1,1.416,1.416,0,0,0,1.667-.94,8.946,8.946,0,0,0-2.113-1.922,1.667,1.667,0,0,1-.3.643,1.4,1.4,0,0,1-1.316.453s.232.45-.341.88a1.979,1.979,0,0,1-1.473.2,1.444,1.444,0,0,1-.89,1.112,2.123,2.123,0,0,1-1.626-.074,1.261,1.261,0,0,1-1.187.707,2.667,2.667,0,0,1-1.406-.392,9.935,9.935,0,0,0-.093,3.329A1.291,1.291,0,0,0,508.816,403.711Z" transform="translate(-507.831 -395.533)" fill="#ffc500"/>
            <path id="Path_3599" data-name="Path 3599" d="M509.52,400.326a1.261,1.261,0,0,0,1.187-.708,2.123,2.123,0,0,0,1.626.074,1.444,1.444,0,0,0,.89-1.113,1.979,1.979,0,0,0,1.473-.2c.574-.43.341-.88.341-.88a1.4,1.4,0,0,0,1.316-.453,1.666,1.666,0,0,0,.3-.643,7.537,7.537,0,0,0-.742-.423,1.049,1.049,0,0,1-.248.836.966.966,0,0,1-1.139.089s.317.355-.343.909a.984.984,0,0,1-1.3-.051,1.245,1.245,0,0,1-.7,1.283,1.563,1.563,0,0,1-1.645-.336,1.14,1.14,0,0,1-1.13,1.052,1.532,1.532,0,0,1-1.108-.549q-.111.351-.186.718A2.669,2.669,0,0,0,509.52,400.326Z" transform="translate(-507.924 -395.324)" fill="#ab6b42"/>
            <path id="Path_3600" data-name="Path 3600" d="M521.173,411.434c-.442,1.1-1.919.911-1.919.911a1.774,1.774,0,0,1-2.154.989,1.948,1.948,0,0,1-1.846.821,1.6,1.6,0,0,1-.873.748,5.907,5.907,0,0,0,4.557-.083,5.608,5.608,0,0,0,3.471-3.328A1.442,1.442,0,0,1,521.173,411.434Z" transform="translate(-509.996 -400.432)" fill="#ffc500"/>
            <path id="Path_3601" data-name="Path 3601" d="M509.5,399.439a1.14,1.14,0,0,0,1.13-1.052,1.563,1.563,0,0,0,1.645.336,1.245,1.245,0,0,0,.7-1.283.984.984,0,0,0,1.3.051c.659-.554.343-.909.343-.909a.966.966,0,0,0,1.139-.089,1.048,1.048,0,0,0,.248-.836,5.233,5.233,0,0,0-7.614,3.233A1.532,1.532,0,0,0,509.5,399.439Z" transform="translate(-508.016 -394.998)" fill="#ffc500"/>
            <path id="Path_3602" data-name="Path 3602" d="M519.986,406.505a1.7,1.7,0,0,1-.769.845,1.773,1.773,0,0,1-1.082.091s.043.44-.547.707a1.654,1.654,0,0,1-1.22.164,1.677,1.677,0,0,1-.764.73,1.615,1.615,0,0,1-1.267.062,1.36,1.36,0,0,1-.836.791,2.972,2.972,0,0,1-1.52.161s-.124.355-.807.635a2.368,2.368,0,0,1-.918.118,6.825,6.825,0,0,0,1.9,1.9c.589-.13,1.246-.41,1.39-.987a49.861,49.861,0,0,1,4.078-1.732,1.534,1.534,0,0,0,1.869-.959s.809.543,1.855-.493a8.177,8.177,0,0,0-.033-2.354A2.665,2.665,0,0,1,519.986,406.505Z" transform="translate(-508.633 -398.697)" fill="#ffc500"/>
            <path id="Path_3603" data-name="Path 3603" d="M520.432,410.194a23.581,23.581,0,0,1-4.024,1.821,1.558,1.558,0,0,1-1.924.87c-.145.577-.8.857-1.39.987a5.557,5.557,0,0,0,.862.459,1.6,1.6,0,0,0,.873-.748,1.947,1.947,0,0,0,1.846-.821,1.774,1.774,0,0,0,2.154-.989s1.477.185,1.919-.911a1.442,1.442,0,0,0,1.236.058,6.047,6.047,0,0,0,.3-1.218C521.241,410.737,520.432,410.194,520.432,410.194Z" transform="translate(-509.571 -399.859)" fill="#ab6b42"/>
            <path id="Path_3604" data-name="Path 3604" d="M517.057,400.428a.92.92,0,0,1-.541,1.1,1.835,1.835,0,0,1-1.77.047,1.07,1.07,0,0,1-.771,1.187,2.01,2.01,0,0,1-1.708-.037,1.243,1.243,0,0,1-.884,1.125,1.494,1.494,0,0,1-1.459-.178,1.245,1.245,0,0,1-1.059.991,1.291,1.291,0,0,1-.889-.24c.039.3.091.592.153.88a1.521,1.521,0,0,0,.928.068,2.064,2.064,0,0,0,1.115-.8,1.406,1.406,0,0,0,1.315.016,1.683,1.683,0,0,0,1.013-.871,2.511,2.511,0,0,0,1.744-.292c1.075-.515,1-1.063,1-1.063a1.547,1.547,0,0,0,1.6-.111c.994-.536.865-1.1.865-1.1a2.193,2.193,0,0,0,1.651-.734,7.894,7.894,0,0,0-.635-.921A1.416,1.416,0,0,1,517.057,400.428Z" transform="translate(-507.878 -396.482)" fill="#ab6b42"/>
            <path id="Path_3605" data-name="Path 3605" d="M517.783,401.6s.129.567-.865,1.1a1.547,1.547,0,0,1-1.6.111s.078.548-1,1.063a2.511,2.511,0,0,1-1.744.292,1.683,1.683,0,0,1-1.013.871,1.406,1.406,0,0,1-1.315-.016,2.063,2.063,0,0,1-1.115.8,1.52,1.52,0,0,1-.928-.068c.072.333.157.657.256.969a9.15,9.15,0,0,0,.611,1.475,2.156,2.156,0,0,0,1.158.141.977.977,0,0,0,.823-.913,1.658,1.658,0,0,0,1.62.092c.869-.436.657-.966.657-.966a1.771,1.771,0,0,0,1.34-.023c.714-.309.572-.87.572-.87a1.065,1.065,0,0,0,1.146.05c.7-.333.691-.8.691-.8a1.889,1.889,0,0,0,1.227-.086,1.134,1.134,0,0,0,.647-.989,3.46,3.46,0,0,0,1.5-.333,11,11,0,0,0-.818-2.268c-.062-.125-.132-.25-.206-.377A2.193,2.193,0,0,1,517.783,401.6Z" transform="translate(-507.954 -396.937)" fill="#ffc500"/>
            <path id="Path_3606" data-name="Path 3606" d="M519.383,405.147a1.134,1.134,0,0,1-.647.989,1.889,1.889,0,0,1-1.227.086s.011.464-.691.8a1.065,1.065,0,0,1-1.146-.05s.141.562-.572.87a1.772,1.772,0,0,1-1.34.023s.211.53-.657.966a1.658,1.658,0,0,1-1.62-.092.978.978,0,0,1-.823.913,2.156,2.156,0,0,1-1.158-.141,8.565,8.565,0,0,0,.507.849,2.368,2.368,0,0,0,.918-.118c.683-.28.807-.635.807-.635a2.973,2.973,0,0,0,1.519-.161,1.361,1.361,0,0,0,.836-.791,1.615,1.615,0,0,0,1.266-.062,1.676,1.676,0,0,0,.764-.73,1.654,1.654,0,0,0,1.22-.164c.59-.267.547-.707.547-.707a1.774,1.774,0,0,0,1.082-.091,1.705,1.705,0,0,0,.769-.845,2.665,2.665,0,0,0,1.33-.321c-.047-.313-.107-.62-.179-.917A3.459,3.459,0,0,1,519.383,405.147Z" transform="translate(-508.383 -398.244)" fill="#ab6b42"/>
          </g>
        </g>
        <g id="Group_5613" data-name="Group 5613" transform="translate(12.461 11.847)">
          <path id="Path_3607" data-name="Path 3607" d="M548.73,399.668c0,.011,0,.021,0,.032a13.937,13.937,0,0,1-27.811-1.87c0-.011,0-.021,0-.032Z" transform="translate(-520.886 -397.798)" fill="#53a094"/>
          <path id="Path_3608" data-name="Path 3608" d="M547.617,399.593v.027a11.727,11.727,0,0,1-23.4-1.573l0-.027Z" transform="translate(-521.978 -397.871)" fill="#fc5f49"/>
          <g id="Group_5592" data-name="Group 5592" transform="translate(4.706 2.789)">
            <path id="Path_3609" data-name="Path 3609" d="M528.262,402.681a.358.358,0,0,0,0-.716.358.358,0,0,0,0,.716Z" transform="translate(-527.917 -401.965)" fill="#5f0c39"/>
          </g>
          <g id="Group_5593" data-name="Group 5593" transform="translate(12.471 4.083)">
            <path id="Path_3610" data-name="Path 3610" d="M539.863,404.615a.359.359,0,0,0,0-.717.359.359,0,0,0,0,.717Z" transform="translate(-539.517 -403.898)" fill="#5f0c39"/>
          </g>
          <g id="Group_5594" data-name="Group 5594" transform="translate(8.373 9.691)">
            <path id="Path_3611" data-name="Path 3611" d="M533.74,412.991a.358.358,0,0,0,0-.716.358.358,0,0,0,0,.716Z" transform="translate(-533.395 -412.275)" fill="#5f0c39"/>
          </g>
          <g id="Group_5595" data-name="Group 5595" transform="translate(10.014 5.956)">
            <path id="Path_3612" data-name="Path 3612" d="M536.192,407.413a.359.359,0,0,0,0-.717.359.359,0,0,0,0,.717Z" transform="translate(-535.846 -406.696)" fill="#5f0c39"/>
          </g>
          <g id="Group_5596" data-name="Group 5596" transform="translate(14.074 7.61)">
            <path id="Path_3613" data-name="Path 3613" d="M542.258,409.882a.358.358,0,0,0,0-.716.358.358,0,0,0,0,.716Z" transform="translate(-541.912 -409.166)" fill="#5f0c39"/>
          </g>
          <g id="Group_5597" data-name="Group 5597" transform="translate(15.754 2.773)">
            <path id="Path_3614" data-name="Path 3614" d="M544.767,402.658a.359.359,0,0,0,0-.717.359.359,0,0,0,0,.717Z" transform="translate(-544.421 -401.941)" fill="#5f0c39"/>
          </g>
          <g id="Group_5598" data-name="Group 5598" transform="translate(4.706 5.255)">
            <path id="Path_3615" data-name="Path 3615" d="M528.262,406.366a.359.359,0,0,0,0-.717.359.359,0,0,0,0,.717Z" transform="translate(-527.917 -405.649)" fill="#5f0c39"/>
          </g>
          <g id="Group_5599" data-name="Group 5599" transform="translate(7.506 3.736)">
            <path id="Path_3616" data-name="Path 3616" d="M532.446,404.1a.358.358,0,0,0,0-.716.358.358,0,0,0,0,.716Z" transform="translate(-532.1 -403.38)" fill="#5f0c39"/>
          </g>
          <g id="Group_5600" data-name="Group 5600" transform="translate(19.8 5.229)">
            <path id="Path_3617" data-name="Path 3617" d="M550.812,406.326a.359.359,0,0,0,0-.717.359.359,0,0,0,0,.717Z" transform="translate(-550.466 -405.609)" fill="#5f0c39"/>
          </g>
          <g id="Group_5601" data-name="Group 5601" transform="translate(23.109 2.773)">
            <path id="Path_3618" data-name="Path 3618" d="M555.756,402.658a.359.359,0,0,0,0-.717.359.359,0,0,0,0,.717Z" transform="translate(-555.41 -401.941)" fill="#5f0c39"/>
          </g>
          <g id="Group_5602" data-name="Group 5602" transform="translate(11.986 2.209)">
            <path id="Path_3619" data-name="Path 3619" d="M539.138,401.814a.358.358,0,0,0,0-.716.358.358,0,0,0,0,.716Z" transform="translate(-538.792 -401.098)" fill="#5f0c39"/>
          </g>
          <g id="Group_5603" data-name="Group 5603" transform="translate(2.65 1.204)">
            <path id="Path_3620" data-name="Path 3620" d="M525.191,400.313a.358.358,0,0,0,0-.716.358.358,0,0,0,0,.716Z" transform="translate(-524.845 -399.597)" fill="#5f0c39"/>
          </g>
          <g id="Group_5604" data-name="Group 5604" transform="translate(11.049 7.858)">
            <path id="Path_3621" data-name="Path 3621" d="M537.739,410.254a.359.359,0,0,0,0-.717.359.359,0,0,0,0,.717Z" transform="translate(-537.393 -409.537)" fill="#5f0c39"/>
          </g>
          <g id="Group_5605" data-name="Group 5605" transform="translate(20.17 2.909)">
            <path id="Path_3622" data-name="Path 3622" d="M551.018,402.49v.054a.358.358,0,0,0,.716,0v-.054a.358.358,0,0,0-.716,0Z" transform="translate(-551.018 -402.144)" fill="#5f0c39"/>
          </g>
          <g id="Group_5606" data-name="Group 5606" transform="translate(20.02 7.858)">
            <path id="Path_3623" data-name="Path 3623" d="M551.14,410.254a.359.359,0,0,0,0-.717.359.359,0,0,0,0,.717Z" transform="translate(-550.794 -409.537)" fill="#5f0c39"/>
          </g>
          <g id="Group_5607" data-name="Group 5607" transform="translate(11.973 10.122)">
            <path id="Path_3624" data-name="Path 3624" d="M539.385,413.586l.054-.054a.359.359,0,0,0-.507-.507l-.054.054a.359.359,0,0,0,.507.507Z" transform="translate(-538.772 -412.92)" fill="#5f0c39"/>
          </g>
          <g id="Group_5608" data-name="Group 5608" transform="translate(7.024 6.779)">
            <path id="Path_3625" data-name="Path 3625" d="M531.726,408.643a.359.359,0,0,0,0-.717.359.359,0,0,0,0,.717Z" transform="translate(-531.38 -407.926)" fill="#5f0c39"/>
          </g>
          <g id="Group_5609" data-name="Group 5609" transform="translate(16.407 5.539)">
            <path id="Path_3626" data-name="Path 3626" d="M545.743,406.79a.359.359,0,0,0,0-.717.359.359,0,0,0,0,.717Z" transform="translate(-545.397 -406.073)" fill="#5f0c39"/>
          </g>
          <g id="Group_5610" data-name="Group 5610" transform="translate(16.731 10.069)">
            <path id="Path_3627" data-name="Path 3627" d="M546.227,413.556a.358.358,0,0,0,0-.716.358.358,0,0,0,0,.716Z" transform="translate(-545.881 -412.84)" fill="#5f0c39"/>
          </g>
          <g id="Group_5611" data-name="Group 5611" transform="translate(8.36 1.885)">
            <path id="Path_3628" data-name="Path 3628" d="M533.376,400.96v.054a.359.359,0,0,0,.717,0v-.054a.359.359,0,0,0-.717,0Z" transform="translate(-533.376 -400.614)" fill="#5f0c39"/>
          </g>
          <g id="Group_5612" data-name="Group 5612" transform="translate(23.093 5.054)">
            <path id="Path_3629" data-name="Path 3629" d="M555.732,406.065a.359.359,0,0,0,0-.717.359.359,0,0,0,0,.717Z" transform="translate(-555.386 -405.348)" fill="#5f0c39"/>
          </g>
        </g>
        <g id="Group_5616" data-name="Group 5616" transform="translate(28.561 14.512)">
          <g id="Group_5614" data-name="Group 5614" transform="translate(6.111)">
            <path id="Path_3630" data-name="Path 3630" d="M554.382,404.4s2.414-2.206,1.937-2.588-2.252,2.347-2.252,2.347Z" transform="translate(-554.067 -401.779)" fill="#562f22"/>
          </g>
          <g id="Group_5615" data-name="Group 5615" transform="translate(0 1.627)">
            <path id="Path_3631" data-name="Path 3631" d="M552.228,405.136c.02.23.471.342.471.342s-.246.339,0,.558.544-.036.544-.036a.658.658,0,0,0,.446.613c.446.137.4-.313.4-.313s.107.406.42.232a.469.469,0,0,0,.136-.117,3.763,3.763,0,0,0-1.043-1.188,4.947,4.947,0,0,0-.892-.54C552.482,404.82,552.216,405,552.228,405.136Z" transform="translate(-547.348 -404.367)" fill="#53a094"/>
            <path id="Path_3632" data-name="Path 3632" d="M552.233,406.257a.469.469,0,0,1-.136.117c-.313.174-.42-.232-.42-.232s.046.451-.4.313a.657.657,0,0,1-.446-.613s-.3.256-.544.036,0-.558,0-.558-.451-.112-.471-.342c-.011-.133.254-.317.481-.449-2.048-.946-3.619.388-4.585,1.666a2.955,2.955,0,0,0-.361.642c-.7,1.647-.491,4.354.444,4.984,1.033.695,3.22.572,5.27-1.227.078-.068.155-.138.232-.211C552.813,408.95,552.871,407.422,552.233,406.257Z" transform="translate(-544.938 -404.209)" fill="#ffc500"/>
          </g>
        </g>
        <g id="Group_5618" data-name="Group 5618" transform="translate(5.305 16.293)">
          <g id="Group_5617" data-name="Group 5617">
            <path id="Path_3633" data-name="Path 3633" d="M513.184,405.366c-.019.23-.471.342-.471.342s.246.339,0,.559-.544-.037-.544-.037a.658.658,0,0,1-.447.612c-.446.137-.4-.313-.4-.313s-.108.406-.421.232a.467.467,0,0,1-.136-.117,3.762,3.762,0,0,1,1.043-1.187,4.924,4.924,0,0,1,.892-.54C512.931,405.05,513.2,405.234,513.184,405.366Z" transform="translate(-510.385 -404.598)" fill="#53a094"/>
            <path id="Path_3634" data-name="Path 3634" d="M517.461,407.067a3.014,3.014,0,0,0-.361-.642c-.966-1.278-2.538-2.612-4.585-1.666.227.133.491.317.48.449-.019.23-.471.342-.471.342s.246.339,0,.559-.544-.037-.544-.037a.658.658,0,0,1-.446.612c-.446.137-.4-.313-.4-.313s-.108.406-.421.232a.467.467,0,0,1-.136-.117c-.638,1.165-.58,2.694.934,4.126.077.073.155.143.232.211,2.05,1.8,4.237,1.922,5.27,1.227C517.952,411.421,518.157,408.715,517.461,407.067Z" transform="translate(-510.195 -404.44)" fill="#fc5f49"/>
          </g>
        </g>
        <g id="Group_5626" data-name="Group 5626" transform="translate(0 10.294)">
          <g id="Group_5625" data-name="Group 5625">
            <path id="Path_3635" data-name="Path 3635" d="M543.227,414.571v11.923a3.77,3.77,0,0,1-.258,1.395,3.931,3.931,0,0,1-2.37,2.321,3.8,3.8,0,0,1-1.319.229H508.862a3.946,3.946,0,0,1-3.945-3.945V414.571Z" transform="translate(-503.146 -401.79)" fill="#ab6b42"/>
            <g id="Group_5619" data-name="Group 5619" transform="translate(1.771 12.781)">
              <path id="Path_3636" data-name="Path 3636" d="M510.954,430.44h-1.882l-4.156-13.729v-2.14h1.233Z" transform="translate(-504.917 -414.571)" fill="#ab6b42" style="mix-blend-mode: multiply;isolation: isolate"/>
              <path id="Path_3637" data-name="Path 3637" d="M518.031,430.44h-1.882l-4.8-15.869h1.873Z" transform="translate(-507.045 -414.571)" fill="#ab6b42" style="mix-blend-mode: multiply;isolation: isolate"/>
              <path id="Path_3638" data-name="Path 3638" d="M525.434,430.44h-1.882l-4.806-15.869h1.882Z" transform="translate(-509.489 -414.571)" fill="#ab6b42" style="mix-blend-mode: multiply;isolation: isolate"/>
              <path id="Path_3639" data-name="Path 3639" d="M532.827,430.44h-1.882l-4.806-15.869h1.882Z" transform="translate(-511.933 -414.571)" fill="#ab6b42" style="mix-blend-mode: multiply;isolation: isolate"/>
              <path id="Path_3640" data-name="Path 3640" d="M540.234,430.44h-1.892l-4.8-15.869h1.882Z" transform="translate(-514.382 -414.571)" fill="#ab6b42" style="mix-blend-mode: multiply;isolation: isolate"/>
              <path id="Path_3641" data-name="Path 3641" d="M547.628,430.44h-1.882l-4.806-15.869h1.882Z" transform="translate(-516.827 -414.571)" fill="#ab6b42" style="mix-blend-mode: multiply;isolation: isolate"/>
              <path id="Path_3642" data-name="Path 3642" d="M554.958,430.21a3.8,3.8,0,0,1-1.319.229h-.5l-4.8-15.868h1.873Z" transform="translate(-519.276 -414.571)" fill="#ab6b42" style="mix-blend-mode: multiply;isolation: isolate"/>
              <path id="Path_3643" data-name="Path 3643" d="M560.03,422.529v3.965a3.77,3.77,0,0,1-.258,1.395l-4.032-13.318h1.882Z" transform="translate(-521.72 -414.571)" fill="#ab6b42" style="mix-blend-mode: multiply;isolation: isolate"/>
            </g>
            <g id="Group_5621" data-name="Group 5621" transform="translate(37.286)">
              <g id="Group_5620" data-name="Group 5620">
                <path id="Path_3644" data-name="Path 3644" d="M560.242,407.955l2.185-11.149a1.114,1.114,0,0,0-.879-1.307h0a1.113,1.113,0,0,0-1.307.879l-2.268,11.578Z" transform="translate(-557.973 -395.478)" fill="#ab6b42"/>
              </g>
            </g>
            <g id="Group_5623" data-name="Group 5623">
              <g id="Group_5622" data-name="Group 5622">
                <path id="Path_3645" data-name="Path 3645" d="M506.746,407.955l-2.269-11.578a1.113,1.113,0,0,0-1.307-.879h0a1.114,1.114,0,0,0-.879,1.307l2.185,11.149Z" transform="translate(-502.271 -395.478)" fill="#ab6b42"/>
              </g>
            </g>
            <g id="Group_5624" data-name="Group 5624" transform="translate(0.569 11.602)">
              <path id="Path_3646" data-name="Path 3646" d="M543.744,414.449a1.663,1.663,0,0,0-1.662-1.639h-37.3a1.663,1.663,0,0,0-1.663,1.639Z" transform="translate(-503.121 -412.81)" fill="#fbe5b8"/>
            </g>
          </g>
        </g>
      </g>
      <g id="Group_5640" data-name="Group 5640" transform="translate(28.298 0)">
        <path id="Path_3647" data-name="Path 3647" d="M499.24,358.2c-1.037,1.519-5.082,2.721-6,2.973l-.388.4c-.907-.7-1.944-1.476-2.721-2.066l.7-.49.058-.05.324-.223.036.043,1.613-1.483.021-.021,4.261-3.923.7,1.613.583,1.346Z" transform="translate(-421.387 -330.03)" fill="#a5513f"/>
        <path id="Path_3648" data-name="Path 3648" d="M477.015,362.315,463.245,376.3a3.845,3.845,0,0,1-5.42.043l-2.613-2.57-11.834-11.624a3.821,3.821,0,1,1,5.651-5.125l8.717,10.761,2.131,2.642,14.418-10.178C475.071,360.839,476.108,361.616,477.015,362.315Z" transform="translate(-405.554 -330.775)" fill="#53a094"/>
        <g id="Group_5628" data-name="Group 5628" transform="translate(74.153 15.527)">
          <path id="Path_3649" data-name="Path 3649" d="M501.946,344.8a2.534,2.534,0,0,0-.3-.119v-2.19h.27v-.788h-2.16v.788h.255v2.19a2.752,2.752,0,0,0-.3.12,2.984,2.984,0,0,0-1.493,2.67v9.905h5.225v-9.905A2.984,2.984,0,0,0,501.946,344.8Z" transform="translate(-498.213 -341.705)" fill="#e6e6e6"/>
          <path id="Path_3650" data-name="Path 3650" d="M503.222,349.972a1.451,1.451,0,0,0-2.3,0,1.507,1.507,0,0,1-2.106,0v9.617h4.411Z" transform="translate(-498.411 -344.25)" fill="#9cb3c3"/>
        </g>
        <path id="Path_3651" data-name="Path 3651" d="M491.17,359.769l4.635-3.921a.918.918,0,0,1,.637-.216l3.4.165s.5,1.46-3.3,1.635a5.462,5.462,0,0,1-4.174,3.718Z" transform="translate(-421.731 -330.782)" fill="#a5513f"/>
        <path id="Path_3652" data-name="Path 3652" d="M419.345,367.393l1.9,12.53c1.939,10.494-1.2,22.783-1.2,22.783l22.323.219s3.764-32.047-.8-44.648a4.1,4.1,0,0,0-4.4-2.613c-.79.092-8.928-.343-11.172.806a12.087,12.087,0,0,0-6.346,6.777A8.882,8.882,0,0,0,419.345,367.393Z" transform="translate(-397.947 -330.783)" fill="#53a094"/>
        <path id="Path_3653" data-name="Path 3653" d="M436.471,352.578l-3.512-.6a1.407,1.407,0,0,1-1.087-1.173c-.1-.627-.368-2.771-.641-5.032-.13-1.03-.266-2.095-.382-3.045-.173-1.432-.324-2.613-.389-3.08a.994.994,0,0,1,.972-1.2l.863.044,2.692.144a1.129,1.129,0,0,1,1.007.979l1.368,10.409.179,1.346A.979.979,0,0,1,436.471,352.578Z" transform="translate(-401.656 -325.098)" fill="#a5513f"/>
        <path id="Path_3654" data-name="Path 3654" d="M437.555,350.037a4.378,4.378,0,0,1-1.022.122c-2.325,0-4.3-1.807-5.111-4.37a8.328,8.328,0,0,1-.4-2.577c0-.158.007-.309.015-.468a7.892,7.892,0,0,1,1.447-4.239l2.692.144a1.129,1.129,0,0,1,1.007.979Z" transform="translate(-401.847 -325.12)" fill="#a5513f" style="mix-blend-mode: multiply;isolation: isolate"/>
        <g id="Group_5637" data-name="Group 5637" transform="translate(24.239 1.749)">
          <path id="Path_3655" data-name="Path 3655" d="M423.936,334.678c-.525-1.4-.386-3.366.8-3.631a2.063,2.063,0,0,1,1.216.183c.351-4.238,2.789-9.235,5.766-9.9,3.9-.868,7.569.617,9.535,10.744.778,4.007-1.391,8.63-5.17,9.826-2.84.9-6.651-1.775-8.689-4.86C426.064,336.849,424.6,336.458,423.936,334.678Z" transform="translate(-423.646 -321.122)" fill="#a5513f"/>
          <g id="Group_5636" data-name="Group 5636" transform="translate(7.052 7.445)">
            <path id="Path_3656" data-name="Path 3656" d="M437.261,338.672a.76.76,0,1,0,.549-.982A.8.8,0,0,0,437.261,338.672Z" transform="translate(-435.191 -334.039)" fill="#5f0c39"/>
            <path id="Path_3657" data-name="Path 3657" d="M444.772,337.147a.76.76,0,1,0,.549-.982A.8.8,0,0,0,444.772,337.147Z" transform="translate(-437.674 -333.535)" fill="#5f0c39"/>
            <g id="Group_5630" data-name="Group 5630" transform="translate(0 1.281)">
              <g id="Group_5629" data-name="Group 5629">
                <path id="Path_3658" data-name="Path 3658" d="M434.494,336.265a.258.258,0,0,0,.2-.2,1.621,1.621,0,0,1,1.857-1.377.258.258,0,1,0,.082-.509,2.127,2.127,0,0,0-2.445,1.776.258.258,0,0,0,.2.307A.244.244,0,0,0,434.494,336.265Z" transform="translate(-434.18 -334.158)" fill="#5f0c39"/>
              </g>
            </g>
            <g id="Group_5632" data-name="Group 5632" transform="translate(5.787)">
              <g id="Group_5631" data-name="Group 5631">
                <path id="Path_3659" data-name="Path 3659" d="M442.939,333.039a.217.217,0,0,0,.234-.018,1.362,1.362,0,0,1,1.937.14.216.216,0,1,0,.331-.279,1.786,1.786,0,0,0-2.529-.207.217.217,0,0,0-.041.3A.213.213,0,0,0,442.939,333.039Z" transform="translate(-442.825 -332.245)" fill="#5f0c39"/>
              </g>
            </g>
            <g id="Group_5634" data-name="Group 5634" transform="translate(3.05 7.857)">
              <g id="Group_5633" data-name="Group 5633">
                <path id="Path_3660" data-name="Path 3660" d="M441.017,345.278a.216.216,0,0,0-.214-.094,1.358,1.358,0,0,1-1.639-1.031.218.218,0,0,0-.257-.167.215.215,0,0,0-.165.257,1.782,1.782,0,0,0,2.13,1.368.217.217,0,0,0,.179-.248A.213.213,0,0,0,441.017,345.278Z" transform="translate(-438.736 -343.982)" fill="#5f0c39"/>
              </g>
            </g>
            <g id="Group_5635" data-name="Group 5635" transform="translate(5.385 2.243)">
              <path id="Path_3661" data-name="Path 3661" d="M443.76,341.065a.9.9,0,0,0,.464-.23c.411-.386.406-1.1-.015-1.911l-1.584-3.2a.207.207,0,1,0-.384.156l1.592,3.216c.4.768.315,1.241.108,1.435a.826.826,0,0,1-.977-.057.221.221,0,0,0-.3.06.2.2,0,0,0,.051.276A1.534,1.534,0,0,0,443.76,341.065Z" transform="translate(-442.225 -335.595)" fill="#5f0c39"/>
            </g>
          </g>
        </g>
        <path id="Path_3662" data-name="Path 3662" d="M553.632,451.4a10.555,10.555,0,0,1-4.05-.12,30.1,30.1,0,0,0-8.527-.426,3.254,3.254,0,0,1-2.129-.468c-2.516-1.687-.587-5.9-.587-5.9-.1-.123-.188-.25-.276-.376,1.729-.185,3.533-.361,5.207-.521l10.62,5.883A1.041,1.041,0,0,1,553.632,451.4Z" transform="translate(-437.093 -359.863)" fill="#5f0c39"/>
        <path id="Path_3663" data-name="Path 3663" d="M441.608,420.807a2.976,2.976,0,0,0,1.977,3.969c4.107,1.086,12.195,1.671,20.749-6.336l12.953-11.475c5.81,9.048,16.769,15.413,28.96,21.136l5.207-.521L484.11,398.649a11.154,11.154,0,0,0-13.385-2.153C456.8,403.976,445.1,411.786,441.608,420.807Z" transform="translate(-405.277 -343.853)" fill="#991a4e"/>
        <path id="Path_3664" data-name="Path 3664" d="M507.591,454.323a10.556,10.556,0,0,1-4.05-.12,30.106,30.106,0,0,0-8.528-.426,3.258,3.258,0,0,1-2.129-.468c-2.515-1.687-.586-5.9-.586-5.9-.1-.123-.188-.25-.276-.376,1.73-.185,3.534-.361,5.208-.521l10.62,5.883A1.041,1.041,0,0,1,507.591,454.323Z" transform="translate(-421.871 -360.831)" fill="#5f0c39"/>
        <path id="Path_3665" data-name="Path 3665" d="M420.669,413.617s-2.8,9.6,6.536,12.039a10.175,10.175,0,0,0,9.724-2.613c3.976-3.974,7.515-10.973,10.944-18.728-.519-.932,8.374,16.965,20.788,24.526l5.207-.521-19.7-33.3a9.325,9.325,0,0,0-14.879-1.576Z" transform="translate(-398.292 -342.291)" fill="#7c0032"/>
        <g id="Group_5638" data-name="Group 5638" transform="translate(0 28.256)">
          <path id="Path_3666" data-name="Path 3666" d="M411.673,389.709l-13.646,28.137a1.693,1.693,0,0,1-1.523.955h-8.252a.811.811,0,0,1-.459-1.481,11.167,11.167,0,0,1,7.276-1.714l10-28.427Z" transform="translate(-387.434 -369.469)" fill="#a5513f"/>
          <path id="Path_3667" data-name="Path 3667" d="M402.215,408.46l-3.239-2.429c.072-.388,5.9-19.569,6.025-19.95l7.259-21.835a4.864,4.864,0,0,1,6.918-2.973,4.811,4.811,0,0,1,2.244,6.045A331.159,331.159,0,0,1,402.215,408.46Z" transform="translate(-391.25 -360.721)" fill="#53a094"/>
        </g>
        <g id="Group_5639" data-name="Group 5639" transform="translate(22.306)">
          <path id="Path_3668" data-name="Path 3668" d="M441.042,322.895c-.458-1.922-4.762-3.659-4.986-3.732-11.483-3.734-12.893,9.782-15.3,8.9,1.165.426,2.242-.336,3.312-.3-.376,1.961-.939,3.279.638,4.742a5.867,5.867,0,0,1,1.794,3.947,3.172,3.172,0,0,0,.95-2.161c-.116-.915-1.112-1.444-1.064-2.445.081-1.648,2.03-4.016,3.392-4.705a5.144,5.144,0,0,1-1.641,2.226c2.712-.4,5.9-2.163,8.16-3.665-.688.85-1.367,1.631-2.123,2.422,1.046-.211,3.562-.647,4.176-1.732,0-.01.007-.02.012-.02a1.056,1.056,0,0,0,.091-.224l-.091.228a4.906,4.906,0,0,0,.3,2.043C439.848,327.088,441.485,324.757,441.042,322.895Z" transform="translate(-420.758 -318.509)" fill="#5f0c39"/>
          <path id="Path_3669" data-name="Path 3669" d="M447,330.281c-.037.077-.057.156-.088.236l.1-.252v0C447.008,330.268,447,330.274,447,330.281Z" transform="translate(-429.405 -322.394)" fill="#5f0c39"/>
        </g>
        <path id="Path_3670" data-name="Path 3670" d="M433.617,360.01a3.907,3.907,0,0,1-2.267-.771c-.187-.137-.367.175-.181.311a4.24,4.24,0,0,0,2.448.819A.18.18,0,0,0,433.617,360.01Z" transform="translate(-401.868 -331.964)" fill="#5f0c39"/>
        <path id="Path_3671" data-name="Path 3671" d="M441.082,357.633c-.027-.227-.388-.23-.36,0,.1.846.045,1.708-.922,1.981a11.135,11.135,0,0,1-2.2.086c-.23.017-.232.378,0,.359.935-.07,2.008.208,2.849-.343A1.981,1.981,0,0,0,441.082,357.633Z" transform="translate(-403.964 -331.388)" fill="#5f0c39"/>
        <path id="Path_3672" data-name="Path 3672" d="M454.935,369.271a10.293,10.293,0,0,0-.306-2.989c-.074-.218-.422-.124-.347.1a12.213,12.213,0,0,1,.312,3.452q.063,1.813.126,3.627c.008.231.368.232.36,0Q455.006,371.364,454.935,369.271Z" transform="translate(-409.532 -334.263)" fill="#5f0c39"/>
        <path id="Path_3673" data-name="Path 3673" d="M424.407,383.026a18.277,18.277,0,0,1-1.766,8c-.1.208.212.392.311.182a18.732,18.732,0,0,0,1.815-8.182A.18.18,0,0,0,424.407,383.026Z" transform="translate(-399.068 -339.782)" fill="#5f0c39"/>
      </g>
      <g id="Group_5654" data-name="Group 5654" transform="translate(130.472 1.069)">
        <path id="Path_3674" data-name="Path 3674" d="M589.578,355.936v10.543l-2.869,2.876L570.4,385.686l-2.848-3.121c3.317-4.784,6.511-9.3,9.452-13.21C582.286,362.309,586.753,357.208,589.578,355.936Z" transform="translate(-549.158 -331.952)" fill="#ef6348"/>
        <path id="Path_3675" data-name="Path 3675" d="M595.716,355.936v10.543l-2.869,2.876-6.729-3.866C591.4,358.443,592.891,357.208,595.716,355.936Z" transform="translate(-555.297 -331.952)" fill="#ef6348"/>
        <path id="Path_3676" data-name="Path 3676" d="M617.115,351.737c-.011,4.126-15.211,1.77-14.94-.174a9.192,9.192,0,0,1,1.368-.119c.347,0,2.193-.131,2.193-.131a1.047,1.047,0,0,0,.923-1.053v-.011c0-.239.011-.478.022-.717v-.163h.011a4.414,4.414,0,0,1,.021-.651c0-.228.022-.457.044-.684l.141-2.052,5.06-2.475-.033,4.994v.087l-.033,1.683a.083.083,0,0,0,.022.054,2.431,2.431,0,0,0,1.216.869,6.813,6.813,0,0,0,2.335.445C616.04,351.65,616.605,351.683,617.115,351.737Z" transform="translate(-560.604 -327.843)" fill="#fbe5b8"/>
        <path id="Path_3677" data-name="Path 3677" d="M614.186,343.507l-.033,4.994a7.091,7.091,0,0,1-5.244,1.032v-.163h.011a4.406,4.406,0,0,1,.021-.651c0-.228.022-.457.044-.684l.141-2.052Z" transform="translate(-562.832 -327.843)" fill="#fbe5b8"/>
        <path id="Path_3678" data-name="Path 3678" d="M621.892,395.022l-10.656,11.333-4.344.393-10.509-11.843V394.9l4.441-9.55.572-.953a3.375,3.375,0,0,0,.49-1.565,8.389,8.389,0,0,0,.019-.944,5.285,5.285,0,0,0-.279-1.783l-1.359-2.558-.009-.017-1.644-3.069c-1.58-2.98-2.649-6.806-1.248-9.756,1.357-2.888.69-7.164,1.746-8.9a7.4,7.4,0,0,1,1.152-.268c4.342,1.544,7.042,3.7,14.941.177a8.49,8.49,0,0,1,1.607.293l-.29,3.448a12.712,12.712,0,0,0,.73,5.308,10.5,10.5,0,0,1,.636,3.45,10.745,10.745,0,0,1-.724,4.052l-1.605,4.012-.239.609a3.343,3.343,0,0,0-.127.394,7.289,7.289,0,0,0-.392,2.106,7.557,7.557,0,0,0,.681,3.5l1.406,2.192Z" transform="translate(-558.691 -331.819)" fill="#ef6348"/>
        <path id="Path_3679" data-name="Path 3679" d="M583.739,436.01h-.007l-.194.021-.015.007c-.007,0-.029.014-.044.014-.691.259-8.22,2.959-12.136.986a2.62,2.62,0,0,1-.641-.446,2.936,2.936,0,0,1-.252-.266,2.685,2.685,0,0,1-.317-2.742,3.1,3.1,0,0,1,.223-.4,2.889,2.889,0,0,1,.3-.367,2.624,2.624,0,0,1,1.562-.748c.144-.015.3-.036.447-.058.3-.036.633-.08.986-.13h.015c.115-.014.223-.029.345-.043a23.129,23.129,0,0,1,8.53.539c.058-.029.123-.058.18-.086Z" transform="translate(-549.934 -356.988)" fill="#53a094"/>
        <path id="Path_3680" data-name="Path 3680" d="M619.309,425.521l-12.51,1.447-9.444,1.08-7.284.843-1.022-3.722c5.168-2.562,10.4-5.082,15.469-7.3,9.523-4.182,18.42-7.328,25.078-7.709.13-.007.26-.014.389-.014a13.289,13.289,0,0,1,6.91,1.252.126.126,0,0,0,.051.029c.122.065.238.137.353.209a7.035,7.035,0,0,1,.655.446,4.189,4.189,0,0,1,1.469,1.929C640.306,416.473,639.514,421.864,619.309,425.521Z" transform="translate(-556.265 -349.868)" fill="#fbe5b8"/>
        <path id="Path_3681" data-name="Path 3681" d="M575.011,431.985c-.353.05-.684.094-.986.13C574.328,432.071,574.658,432.029,575.011,431.985Z" transform="translate(-551.299 -357.095)" fill="#fbe5b8"/>
        <path id="Path_3682" data-name="Path 3682" d="M579.887,431.682a23.847,23.847,0,0,0-3.851.151A22.4,22.4,0,0,1,579.887,431.682Z" transform="translate(-551.963 -356.986)" fill="#fbe5b8"/>
        <path id="Path_3683" data-name="Path 3683" d="M619.252,425.526,597.3,428.053l-7.284.843-1.022-3.722-.115-.41c18.9-9.761,32.261-14.252,40.661-14.6.13-.007.26-.014.389-.014a14.018,14.018,0,0,1,6.91,1.252.126.126,0,0,0,.051.029c.122.065.238.137.353.209a7.024,7.024,0,0,1,.655.446,4.19,4.19,0,0,1,1.469,1.929C640.249,416.478,639.457,421.87,619.252,425.526Z" transform="translate(-556.209 -349.873)" fill="#7c0032"/>
        <path id="Path_3684" data-name="Path 3684" d="M651.187,436.586a.986.986,0,0,1-.165.137,2.226,2.226,0,0,1-.483.317c-.129.065-.259.122-.4.18a6.661,6.661,0,0,1-.857.274q-.453.107-.928.173a12,12,0,0,1-1.914.079c-.115,0-.223-.007-.338-.014-.454-.022-.907-.058-1.361-.122l-.353-.044c-.115-.014-.23-.029-.345-.05s-.23-.036-.345-.058c-.324-.05-.633-.108-.936-.173-.468-.1-.914-.2-1.331-.31h-.007c-.2-.05-.389-.1-.569-.151-.309-.086-.6-.173-.864-.245-.173-.05-.324-.1-.468-.144-.216-.072-.41-.137-.568-.187s-.3-.108-.4-.137c-.036-.014-.065-.021-.086-.029-.072-.029-.115-.043-.115-.043l-1.152-.13c.065-.187.627-1.756,1.461-3.872.23.115.454.223.684.338a32.037,32.037,0,0,1,4.772-.677h.015c.216-.014.424-.021.626-.029.137,0,.266-.007.4-.007a25.645,25.645,0,0,1,3.074.216.261.261,0,0,0,.079.007c.209.029.4.058.59.086.266.036.518.072.77.1a2.629,2.629,0,0,1,1.562.749,3.487,3.487,0,0,1,.3.353v.007a3.187,3.187,0,0,1,.223.4A2.637,2.637,0,0,1,651.187,436.586Z" transform="translate(-572.186 -356.988)" fill="#53a094"/>
        <path id="Path_3685" data-name="Path 3685" d="M614.644,424.916c-.835,2.116-1.4,3.685-1.461,3.872L597,426.917l-12.122-1.4c-20.205-3.664-20.975-9.048-20.1-11.51a4.332,4.332,0,0,1,1.468-1.936,8.242,8.242,0,0,1,.692-.475c.223-.137.453-.259.691-.374l.389-.173c.266-.115.547-.216.835-.31a.116.116,0,0,0,.058-.021,11.875,11.875,0,0,1,2.3-.483.014.014,0,0,0,.022,0c.173-.014.352-.036.532-.05.317-.029.648-.05.986-.058,6.975-.187,16.981,3.325,27.713,8.091C605.121,420.28,609.908,422.576,614.644,424.916Z" transform="translate(-548.167 -349.867)" fill="#fbe5b8"/>
        <path id="Path_3686" data-name="Path 3686" d="M639.223,438.308c.1.029.23.079.4.137C639.453,438.394,639.323,438.344,639.223,438.308Z" transform="translate(-572.854 -359.186)" fill="#fbe5b8"/>
        <path id="Path_3687" data-name="Path 3687" d="M639.815,438.512c.158.051.352.116.568.187C640.167,438.635,639.973,438.57,639.815,438.512Z" transform="translate(-573.05 -359.253)" fill="#fbe5b8"/>
        <path id="Path_3688" data-name="Path 3688" d="M643.514,439.6c.417.108.864.209,1.331.31C644.378,439.814,643.931,439.706,643.514,439.6Z" transform="translate(-574.273 -359.612)" fill="#fbe5b8"/>
        <path id="Path_3689" data-name="Path 3689" d="M649.084,431.662a20.061,20.061,0,0,1,3.074.216A25.63,25.63,0,0,0,649.084,431.662Z" transform="translate(-576.115 -356.988)" fill="#fbe5b8"/>
        <path id="Path_3690" data-name="Path 3690" d="M614.659,424.877c-.007.014-.007.021-.015.036-.835,2.116-1.4,3.685-1.461,3.872a.057.057,0,0,0-.007.021l-28.3-3.289c-20.205-3.664-20.975-9.048-20.1-11.51a4.332,4.332,0,0,1,1.468-1.936,8.249,8.249,0,0,1,.692-.475c.223-.13.453-.259.691-.374l.389-.173c.266-.115.547-.216.835-.31a.116.116,0,0,0,.058-.021,13.837,13.837,0,0,1,2.3-.483.014.014,0,0,0,.022,0c.173-.014.352-.035.532-.05.317-.029.648-.05.986-.058C580.9,409.847,594.569,414.36,614.659,424.877Z" transform="translate(-548.167 -349.865)" fill="#991a4e"/>
        <path id="Path_3691" data-name="Path 3691" d="M647.4,431.688c.252-.007.5-.015.734-.015-.2.007-.41.015-.626.029h-.015C647.454,431.694,647.425,431.694,647.4,431.688Z" transform="translate(-575.556 -356.992)" fill="#434192"/>
        <path id="Path_3692" data-name="Path 3692" d="M655.453,432.219a2.511,2.511,0,0,1,1.555.756,2.629,2.629,0,0,0-1.562-.749c-.252-.029-.5-.064-.77-.1C654.949,432.161,655.208,432.19,655.453,432.219Z" transform="translate(-577.963 -357.141)" fill="#434192"/>
        <path id="Path_3693" data-name="Path 3693" d="M596.04,401.23l.432,3.628-2.267.5v.007l-1.764.669a7.235,7.235,0,0,1-4.06.3,15.582,15.582,0,0,0-2.591,1.813c-.3.339-.857-.129-.569-.5l2.412-2.058-1.613.5a3.459,3.459,0,0,0-1.109.576l-.907.691c-.439,0-.742-.1-.461-.648l.979-.821a4.515,4.515,0,0,1,.951-.6l1.576-.7-2.26.389-1.807.475a.359.359,0,0,1-.18-.691l2.08-.655,1.972-.511-3.268.583a.377.377,0,0,1-.216-.705l1.2-.374a17.079,17.079,0,0,1,2.346-.533l1.425-.209-1.807-.4c-.482-.216-.273-.683.144-.683l2.347.237a7.464,7.464,0,0,1,2.865.908l.576.323C593.68,402.231,594.867,401.72,596.04,401.23Z" transform="translate(-554.124 -346.927)" fill="#fbe5b8"/>
        <path id="Path_3694" data-name="Path 3694" d="M632.173,364.387l-6.14.18a29.491,29.491,0,0,1,.015-8.5l.914.547A11.264,11.264,0,0,1,632.173,364.387Z" transform="translate(-568.396 -331.995)" fill="#fbe5b8"/>
        <path id="Path_3695" data-name="Path 3695" d="M632.6,369.4h-6.092a25.932,25.932,0,0,1-.6-13.333l.91.549a11.255,11.255,0,0,1,5.283,8.26Z" transform="translate(-568.255 -331.995)" fill="#ef6348"/>
        <g id="Group_5641" data-name="Group 5641" transform="translate(0 40.84)">
          <path id="Path_3696" data-name="Path 3696" d="M568.778,400.534l-6.107-19.416h-22.6l8.075,19.416Z" transform="translate(-540.074 -381.118)" fill="#5b7790"/>
          <path id="Path_3697" data-name="Path 3697" d="M573.832,381.118h1.086l6.2,19.59H579.94Z" transform="translate(-551.235 -381.118)" fill="#8fabbc"/>
          <rect id="Rectangle_1575" data-name="Rectangle 1575" width="33.862" height="1.485" transform="translate(8.075 19.416)" fill="#5b7790"/>
        </g>
        <g id="Group_5651" data-name="Group 5651" transform="translate(39.21 1.821)">
          <path id="Path_3698" data-name="Path 3698" d="M614.484,333.3c.218-1.338-.252-3.056-1.357-3.08a1.862,1.862,0,0,0-1.046.377c-1.06-3.7-4.108-7.7-6.868-7.765-3.611-.082-6.608,1.886-6.563,11.222.019,3.694,2.761,7.413,6.326,7.806,2.679.3,5.589-2.751,6.852-5.85A3.42,3.42,0,0,0,614.484,333.3Z" transform="translate(-598.65 -322.826)" fill="#fbe5b8"/>
          <g id="Group_5650" data-name="Group 5650" transform="translate(1.413 7.064)">
            <g id="Group_5648" data-name="Group 5648">
              <g id="Group_5643" data-name="Group 5643" transform="translate(3.396 5.211)">
                <g id="Group_5642" data-name="Group 5642">
                  <path id="Path_3699" data-name="Path 3699" d="M606.413,344.292a3.215,3.215,0,0,1-.368.008.225.225,0,0,1-.21-.237.219.219,0,0,1,.238-.211,3.1,3.1,0,0,0,3.285-2.505.224.224,0,0,1,.44.082A3.466,3.466,0,0,1,606.413,344.292Z" transform="translate(-605.835 -341.163)" fill="#5f0c39"/>
                </g>
              </g>
              <path id="Path_3700" data-name="Path 3700" d="M609.573,337.183a.66.66,0,1,1-.74-.639A.692.692,0,0,1,609.573,337.183Z" transform="translate(-603.241 -334.424)" fill="#5f0c39"/>
              <path id="Path_3701" data-name="Path 3701" d="M603.069,337.813a.66.66,0,1,1-.739-.638A.692.692,0,0,1,603.069,337.813Z" transform="translate(-601.091 -334.632)" fill="#5f0c39"/>
              <g id="Group_5645" data-name="Group 5645" transform="translate(5.069)">
                <g id="Group_5644" data-name="Group 5644">
                  <path id="Path_3702" data-name="Path 3702" d="M610.841,334.625a.224.224,0,0,1-.224-.094,1.407,1.407,0,0,0-1.943-.5.224.224,0,1,1-.232-.383,1.847,1.847,0,0,1,2.546.631.224.224,0,0,1-.147.347Z" transform="translate(-608.333 -333.379)" fill="#5f0c39"/>
                </g>
              </g>
              <g id="Group_5647" data-name="Group 5647" transform="translate(0 0.398)">
                <g id="Group_5646" data-name="Group 5646">
                  <path id="Path_3703" data-name="Path 3703" d="M602.832,334.345a.189.189,0,0,1-.194.062,1.182,1.182,0,0,0-1.51.749.188.188,0,1,1-.358-.116,1.551,1.551,0,0,1,1.965-1,.188.188,0,0,1,.133.23A.183.183,0,0,1,602.832,334.345Z" transform="translate(-600.761 -333.973)" fill="#5f0c39"/>
                </g>
              </g>
            </g>
            <g id="Group_5649" data-name="Group 5649" transform="translate(2.335 4.436)">
              <path id="Path_3704" data-name="Path 3704" d="M605.338,342.017a.206.206,0,0,0-.08-.4s-.391.068-.532-.119c-.065-.087-.17-.376.248-1.188a.206.206,0,0,0-.367-.188c-.392.761-.461,1.293-.211,1.625a1.018,1.018,0,0,0,.941.274Z" transform="translate(-604.25 -340.006)" fill="#5f0c39"/>
            </g>
          </g>
        </g>
        <g id="Group_5653" data-name="Group 5653" transform="translate(37.479)">
          <g id="Group_5652" data-name="Group 5652">
            <path id="Path_3705" data-name="Path 3705" d="M611.92,325.066c-.029-.106-.062-.211-.1-.316a6.583,6.583,0,0,0-3-3.574,9.839,9.839,0,0,0-8.883-.021c-2.568,1.449-6.006,6.267-2.147,10.165.184-.722.8-4.642,1.128-4.255a6.745,6.745,0,0,0,.571.762,7.854,7.854,0,0,0,3.49,2.218,22.751,22.751,0,0,1,1.4-3.178,10.973,10.973,0,0,1,5.338,7.575,8.473,8.473,0,0,0,2.086-4.331A10.461,10.461,0,0,0,611.92,325.066Z" transform="translate(-596.064 -320.106)" fill="#5f0c39"/>
          </g>
        </g>
        <path id="Path_3706" data-name="Path 3706" d="M623,389.659l-19.874,4.376-.432-3.628c6.586-2.757,12.661-5.06,18.01-6.745-.59-3.441-1.195-6.91-1.67-10.156-.252-1.684-.461-3.3-.619-4.83l6.14-.18c.029.165.05.324.072.489l.5,4.52,1.26,11.438A4.342,4.342,0,0,1,623,389.659Z" transform="translate(-560.777 -336.105)" fill="#ef6348"/>
        <path id="Path_3711" data-name="Path 3711" d="M626.05,371.063c-.035-.228-.382-.131-.347.1a40.271,40.271,0,0,0,1.222,5.48.18.18,0,0,0,.347-.1A40.261,40.261,0,0,1,626.05,371.063Z" transform="translate(-568.383 -336.91)" fill="#5f0c39"/>
        <path id="Path_3712" data-name="Path 3712" d="M619.449,401.261c-4.89,2.011-10.785,2.406-15.965,3.371-.228.042-.131.39.1.347,5.182-.965,11.078-1.362,15.965-3.372C619.756,401.521,619.664,401.173,619.449,401.261Z" transform="translate(-560.995 -346.932)" fill="#5f0c39"/>
        <path id="Path_3713" data-name="Path 3713" d="M615.932,393.3l-13.355,5.058c-.215.081-.122.429.1.347l13.354-5.059C616.242,393.568,616.149,393.22,615.932,393.3Z" transform="translate(-560.698 -344.302)" fill="#5f0c39"/>
      </g>
      <g id="Group_5655" data-name="Group 5655" transform="translate(176.729 0.529)">
        <path id="Path_3714" data-name="Path 3714" d="M614.08,329.888s.28-10.523-4.9-10.531l.331-.058a13.353,13.353,0,0,1,4.168.778,7.2,7.2,0,0,1,1.238.266c.878,1.455,1.713,4.24,1.828,9.567Z" transform="translate(-609.178 -319.3)" fill="#53a094"/>
        <path id="Path_3715" data-name="Path 3715" d="M616.12,333.53a3.041,3.041,0,0,1,2.337-.918,2.691,2.691,0,0,1,2.214,1.764c.183.474.381,1.009.492,1.368a2.658,2.658,0,0,1-1.464,3.282C616.861,340.278,613.821,335.6,616.12,333.53Z" transform="translate(-611.206 -323.698)" fill="#ef6348"/>
      </g>
      <g id="Group_5656" data-name="Group 5656" transform="translate(154.032 21.419)">
        <path id="Path_3716" data-name="Path 3716" d="M605.634,355.416a2.491,2.491,0,0,1-.809-2.215c.187-1.268,1.226-1.177,2.293-1.2,2.269-.056,4.188-1.368,6.384-1.484,1.754-.094.958,1.043,1.612,2.025.61.916,3.056,1.062,1.335,2.408s-4.572,1.1-6.66,1.1c-1.392,0-3.09.523-4.446.277a1.432,1.432,0,0,1-1.218-1.246c-.061-.766.49-.966.88-1.55" transform="translate(-584.809 -350.507)" fill="#53a094"/>
        <path id="Path_3717" data-name="Path 3717" d="M601.315,357.572c-14.936,4.678-24.842,2.542-24.842,2.542l-1.2,4.3s8.408,3.239,23.527-2.811c1.4-.559,5.147-2.211,5.486-3.847Z" transform="translate(-575.271 -352.843)" fill="#53a094"/>
        <path id="Path_3718" data-name="Path 3718" d="M604.464,357.792c-13.253,8.326-23.377,8.781-23.377,8.781l-.069,4.461s8.956.992,22.036-8.707c1.209-.9,4.415-3.448,4.327-5.116Z" transform="translate(-577.171 -352.723)" fill="#53a094"/>
      </g>
    </g>
  </g>
</svg>
