<svg xmlns="http://www.w3.org/2000/svg" width="231" height="289.67" viewBox="0 0 231 289.67">
  <g id="Group_6271" data-name="Group 6271" transform="translate(-1135 -4547.534)">
    <g id="Group_6200" data-name="Group 6200" transform="translate(470.68 4208.382)">
      <path id="Path_4361" data-name="Path 4361" d="M685.865,339.257c-13.9-1.512-15.514,13.723-13.165,23.068,1.313,5.225,2.329,11.03,1.246,16.473-1.1,5.5-5.141,9.109-7.491,14.087-2.737,5.8-3.134,12.663.541,18.09,4.308,6.36,12.812,8.3,20.115,8.742,10.454.629,19.408-5.179,22.694-15.014s-1.371-15.44-6.1-23.356c-6.608-11.071.753-23.357-3.266-34.947C697.655,338.362,692.549,340.809,685.865,339.257Z" fill="#ffc248"/>
      <line id="Line_159" data-name="Line 159" y2="95.419" transform="translate(686.8 352.665)" fill="none" stroke="#8e6f49" stroke-miterlimit="10" stroke-width="1.492"/>
      <line id="Line_160" data-name="Line 160" x2="8.731" y2="10.914" transform="translate(678.069 355.784)" fill="none" stroke="#8e6f49" stroke-miterlimit="10" stroke-width="1.492"/>
      <line id="Line_161" data-name="Line 161" x1="9.667" y2="11.226" transform="translate(686.488 363.891)" fill="none" stroke="#8e6f49" stroke-miterlimit="10" stroke-width="1.492"/>
      <line id="Line_162" data-name="Line 162" x2="9.043" y2="11.538" transform="translate(677.757 382.601)" fill="none" stroke="#8e6f49" stroke-miterlimit="10" stroke-width="1.492"/>
    </g>
    <g id="Group_6193" data-name="Group 6193" transform="translate(0 3498.37)">
      <path id="Path_4456" data-name="Path 4456" d="M0,349.859c-.254-6.366,12.814-10.8,17.626-12.567,38.3-14,82.545-12.262,118.291-33.9,10.988-6.651,23.5-19.852,14.424-33.426-7.082-10.6-22.14-9.016-33.16-11.432-5.155-1.135-14.475-3.392-12.56-10.76,1.547-5.979,12.985-6.778,18.165-7.627,6.8-1.11,32.386-1.87,24.924-14.424-5.377-9.035-26.693-9.339-35.918-10.3C95.083,213.669,78.522,208.6,62.2,204.78,54.01,202.859,31.42,194.813,39,182.31c3.576-5.9,134.668-31.467,147.5-34.485.495-.114.983-.228,1.471-.33V367.308H169.113c-12.116-.875-24.207-1.87-36.317-2.257-21.817-.7-43.628-1.046-65.381-2.676-18.038-1.35-36.064-2.264-53.886-5.408C9,356.168.251,355.9,0,349.859Z" transform="translate(1178.031 928.135)" fill="#ffc14b" opacity="0.21" style="mix-blend-mode: multiply;isolation: isolate"/>
      <g id="Group_6190" data-name="Group 6190" transform="translate(1199.672 1206.871)" opacity="0.6">
        <g id="Group_5791" data-name="Group 5791" transform="translate(7.913 1.944)">
          <path id="Path_3963" data-name="Path 3963" d="M134.228,388.364c.834-1.477,2.11-2.7,2.706-4.305.381-1.027,2.041-.583,1.656.457-.657,1.776-1.961,3.091-2.879,4.715a.86.86,0,0,1-1.484-.867Z" transform="translate(-134.11 -383.476)" fill="#ffce71"/>
        </g>
        <g id="Group_5792" data-name="Group 5792" transform="translate(6.212 2.114)">
          <path id="Path_3964" data-name="Path 3964" d="M139.309,387.536a11.548,11.548,0,0,0-.184-2.778.887.887,0,0,1,.6-1.057.865.865,0,0,1,1.057.6,13.462,13.462,0,0,1,.246,3.235c-.095,1.094-1.814,1.1-1.718,0Z" transform="translate(-139.11 -383.673)" fill="#ffce71"/>
        </g>
        <g id="Group_5793" data-name="Group 5793" transform="translate(2.084 0)">
          <path id="Path_3965" data-name="Path 3965" d="M143.852,387.2c-.589-1.543-.917-3.352-1.847-4.734-.619-.92.869-1.781,1.484-.867,1.013,1.505,1.381,3.466,2.02,5.144.394,1.034-1.266,1.482-1.656.457Z" transform="translate(-141.857 -381.212)" fill="#ffce71"/>
        </g>
        <g id="Group_5794" data-name="Group 5794" transform="translate(0 4.227)">
          <path id="Path_3966" data-name="Path 3966" d="M146.342,390.638a33.782,33.782,0,0,1-3.007-3.007c-.716-.835.493-2.056,1.215-1.215a33.9,33.9,0,0,0,3.007,3.007c.821.744-.4,1.956-1.215,1.215Z" transform="translate(-143.116 -386.133)" fill="#ffce71"/>
        </g>
      </g>
      <g id="Group_6191" data-name="Group 6191" transform="translate(1329.672 1108.871)" opacity="0.6">
        <g id="Group_5791-2" data-name="Group 5791" transform="translate(7.913 1.944)">
          <path id="Path_3963-2" data-name="Path 3963" d="M134.228,388.364c.834-1.477,2.11-2.7,2.706-4.305.381-1.027,2.041-.583,1.656.457-.657,1.776-1.961,3.091-2.879,4.715a.86.86,0,0,1-1.484-.867Z" transform="translate(-134.11 -383.476)" fill="#ffce71"/>
        </g>
        <g id="Group_5792-2" data-name="Group 5792" transform="translate(6.212 2.114)">
          <path id="Path_3964-2" data-name="Path 3964" d="M139.309,387.536a11.548,11.548,0,0,0-.184-2.778.887.887,0,0,1,.6-1.057.865.865,0,0,1,1.057.6,13.462,13.462,0,0,1,.246,3.235c-.095,1.094-1.814,1.1-1.718,0Z" transform="translate(-139.11 -383.673)" fill="#ffce71"/>
        </g>
        <g id="Group_5793-2" data-name="Group 5793" transform="translate(2.084 0)">
          <path id="Path_3965-2" data-name="Path 3965" d="M143.852,387.2c-.589-1.543-.917-3.352-1.847-4.734-.619-.92.869-1.781,1.484-.867,1.013,1.505,1.381,3.466,2.02,5.144.394,1.034-1.266,1.482-1.656.457Z" transform="translate(-141.857 -381.212)" fill="#ffce71"/>
        </g>
        <g id="Group_5794-2" data-name="Group 5794" transform="translate(0 4.227)">
          <path id="Path_3966-2" data-name="Path 3966" d="M146.342,390.638a33.782,33.782,0,0,1-3.007-3.007c-.716-.835.493-2.056,1.215-1.215a33.9,33.9,0,0,0,3.007,3.007c.821.744-.4,1.956-1.215,1.215Z" transform="translate(-143.116 -386.133)" fill="#ffce71"/>
        </g>
      </g>
      <g id="Group_6192" data-name="Group 6192" transform="translate(1242.672 1329.871)" opacity="0.6">
        <g id="Group_5791-3" data-name="Group 5791" transform="translate(7.913 1.944)">
          <path id="Path_3963-3" data-name="Path 3963" d="M134.228,388.364c.834-1.477,2.11-2.7,2.706-4.305.381-1.027,2.041-.583,1.656.457-.657,1.776-1.961,3.091-2.879,4.715a.86.86,0,0,1-1.484-.867Z" transform="translate(-134.11 -383.476)" fill="#ffce71"/>
        </g>
        <g id="Group_5792-3" data-name="Group 5792" transform="translate(6.212 2.114)">
          <path id="Path_3964-3" data-name="Path 3964" d="M139.309,387.536a11.548,11.548,0,0,0-.184-2.778.887.887,0,0,1,.6-1.057.865.865,0,0,1,1.057.6,13.462,13.462,0,0,1,.246,3.235c-.095,1.094-1.814,1.1-1.718,0Z" transform="translate(-139.11 -383.673)" fill="#ffce71"/>
        </g>
        <g id="Group_5793-3" data-name="Group 5793" transform="translate(2.084 0)">
          <path id="Path_3965-3" data-name="Path 3965" d="M143.852,387.2c-.589-1.543-.917-3.352-1.847-4.734-.619-.92.869-1.781,1.484-.867,1.013,1.505,1.381,3.466,2.02,5.144.394,1.034-1.266,1.482-1.656.457Z" transform="translate(-141.857 -381.212)" fill="#ffce71"/>
        </g>
        <g id="Group_5794-3" data-name="Group 5794" transform="translate(0 4.227)">
          <path id="Path_3966-3" data-name="Path 3966" d="M146.342,390.638a33.782,33.782,0,0,1-3.007-3.007c-.716-.835.493-2.056,1.215-1.215a33.9,33.9,0,0,0,3.007,3.007c.821.744-.4,1.956-1.215,1.215Z" transform="translate(-143.116 -386.133)" fill="#ffce71"/>
        </g>
      </g>
      <g id="Group_6196" data-name="Group 6196" transform="translate(1177.799 843.328)">
        <g id="Group_6195" data-name="Group 6195">
          <path id="Path_4458" data-name="Path 4458" d="M115,421a3.361,3.361,0,0,1-1.174,2.059,2.916,2.916,0,0,1-2.21.2,7.114,7.114,0,0,1-3.873-2.689c-1.644-2.192-1.426-5.236-.808-7.771.456-1.871,1.146-3.7,1.712-5.545,1.183-3.855,2.932-7.8,5.827-10.7,1.117-1.12,3.151-2.382,4.84-2.159,3.628.48,2.277,5.77,1.714,7.994-1.153,4.559-3.146,8.8-4.576,13.259-.336,1.046-.614,2.109-.941,3.158C115.327,419.388,115.2,420.216,115,421Z" fill="#23003f"/>
          <path id="Path_4459" data-name="Path 4459" d="M116.942,420.935s2.914,15.975-.548,21.482l6.006-.113-1.511-16.332Z" fill="#23003f"/>
          <path id="Path_4460" data-name="Path 4460" d="M129.322,422.064s2.325,18.43,0,20.212l7.7.026-3.205-15.2Z" fill="#23003f"/>
          <path id="Path_4461" data-name="Path 4461" d="M148.2,421.957c1.484,1.091,2.359,1.1,2.324,3.534-.022,1.51-2.861,2.831-4.307,4a12.865,12.865,0,0,0-2.754-4.06c-3.209-3.145-7.073-5.533-10.295-8.685-5.586-5.465-8.5-13.234-11.2-20.431-1.061-2.827-3.023-1.871-5.671-1.521a102.171,102.171,0,0,1-12.484.424c-1.826.018-4.262.144-4.088,2.6a7.2,7.2,0,0,0,2.511,4.607,13.26,13.26,0,0,0,7.733,2.825,13.416,13.416,0,0,0,2.024.11s-.89,13.562,7.712,21.971c.543,6.161,1.8,13.127-1.376,14.986l6.995.046c.581-1.318.232-10.15.232-10.15s4.3,4.069,7.518,2.79c-1.589,2.209.349,5.309.349,5.309a2.325,2.325,0,0,1-1.008,2.028l12.71-.038c2.066-.5,3.268-5.957,1.715-11.1C158.6,426.622,150.974,419.86,148.2,421.957Z" fill="#fff"/>
          <path id="Path_4462" data-name="Path 4462" d="M122.367,408.037a39.207,39.207,0,0,0,3.379-2.689c.985-.867-1.269-3.152-1.821-2.539h0c-5.526,4.819-11.243,3.637-11.956,3.378s-1.381,3.1-.325,3.5S116.547,411.65,122.367,408.037Z" fill="#edba3f"/>
          <path id="Path_4463" data-name="Path 4463" d="M128.265,421.942a4.138,4.138,0,0,1-2.224,3.68,6.322,6.322,0,0,1-4.878-.409c-2.924-1.356-3.918-4.582-4.741-7.46a40.115,40.115,0,0,1-.937-5.212c-.681-4.585-1.122-9.372.323-13.866.537-1.669,1.826-3.89,3.617-4.517,3.243-1.136,4.546,3.106,5.176,5.38a75.676,75.676,0,0,1,2.015,13.226c.12,1.293.288,2.579.515,3.857.3,1.687.679,3.29,1.063,4.954C128.223,421.7,128.246,421.822,128.265,421.942Z" fill="#23003f"/>
          <g id="Group_6194" data-name="Group 6194">
            <path id="Path_4464" data-name="Path 4464" d="M110.328,397.642a.657.657,0,1,0-.657.657A.657.657,0,0,0,110.328,397.642Z" fill="#23003f"/>
            <path id="Path_4465" data-name="Path 4465" d="M99.659,395h-.036a1.657,1.657,0,1,0,0,3.314h.036a1.657,1.657,0,1,0,0-3.314Z" fill="#23003f"/>
          </g>
        </g>
      </g>
    </g>
  </g>
</svg>
