<svg xmlns="http://www.w3.org/2000/svg" width="1367" height="51" viewBox="0 0 1367 51">
  <g id="Group_6217" data-name="Group 6217" transform="translate(0.5 0.499)">
    <path id="Union_3" data-name="Union 3" d="M1139.557,47.151a244.582,244.582,0,0,1-37.912-8.257c-10.953-3.367-23.371-5.48-34.472-8.769-31.786-9.417-92.835-12.452-126.96-2.634C911.537,35.741,872.059,48.9,833.746,43.22c-30.83-4.568-56.509-14.248-86.914-19.476-18.81-3.233-45.292-8.07-63.833-8.216.043,0,0-15.347,0-15.527V15.528c-19.519,0-45.023,4.983-63.832,8.216-30.4,5.227-56.084,14.908-86.914,19.476-38.312,5.677-77.791-7.478-106.466-15.729-34.124-9.818-95.173-6.783-126.96,2.634-11.1,3.289-23.519,5.4-34.473,8.769a244.557,244.557,0,0,1-37.912,8.257c-35.1,4.765-66.76,3.012-102.309-1.291A666.074,666.074,0,0,1,43.868,30.736C30.294,27.4,0,18.123,0,18.123V.237L683,0l683,.237V18.123s-30.294,9.278-43.868,12.613a666.073,666.073,0,0,1-80.267,15.124c-20.656,2.5-40,4.14-59.466,4.14A315.825,315.825,0,0,1,1139.557,47.151ZM683,15.528h0Z" transform="translate(0 0.001)" fill="#f0ce4a" stroke="rgba(0,0,0,0)" stroke-miterlimit="10" stroke-width="1"/>
  </g>
</svg>
